<mxfile host="app.diagrams.net" modified="2023-11-17T11:07:46.179Z" agent="Mozilla/5.0 (Windows NT 10.0; Win64; x64) AppleWebKit/537.36 (KHTML, like Gecko) Chrome/119.0.0.0 Safari/537.36" version="22.1.2" etag="5RJ43Gp2THJzv1U6MqRU" type="github">
  <diagram name="Страница — 1" id="nBCxUV2i65EYnfx9Ihkn">
    <mxGraphModel>
      <root>
        <mxCell id="0" />
        <mxCell id="1" parent="0" />
      </root>
    </mxGraphModel>
  </diagram>
</mxfile>
